<svg width="128" height="80" viewBox="0 0 128 80" fill="none" xmlns="http://www.w3.org/2000/svg">
<path d="M17.8594 35.9749C14.8876 35.9749 12.4155 35.4226 10.443 34.3181C8.47059 33.1872 6.99783 31.6092 6.02475 29.5842C5.05168 27.5591 4.56514 25.1922 4.56514 22.4834C4.56514 19.4852 5.10428 16.8685 6.18255 14.633C7.28712 12.3713 8.87823 10.6224 10.9559 9.3863C13.0335 8.15024 15.532 7.5322 18.4512 7.5322C21.1863 7.5322 23.3692 8.01874 24.9997 8.99181C26.6303 9.93859 27.4456 11.1484 27.4456 12.6211C27.4456 13.489 27.1694 14.1859 26.6171 14.7119C26.0648 15.2116 25.2627 15.4614 24.2107 15.4614C23.527 15.4614 22.8563 15.3168 22.1988 15.0275C21.5414 14.7382 20.8313 14.4621 20.0686 14.1991C19.3322 13.9098 18.4512 13.7651 17.4255 13.7651C16.1105 13.7651 14.8876 14.015 13.7568 14.5147C12.6522 15.0144 11.758 15.8559 11.0742 17.0394C10.4167 18.1966 10.088 19.7745 10.088 21.7733C10.088 24.7977 10.7455 26.9411 12.0604 28.2035C13.4017 29.4658 15.1638 30.097 17.3466 30.097C18.1093 30.097 18.9114 30.0313 19.753 29.8998C20.5946 29.742 21.3836 29.5973 22.1199 29.4658C22.8563 29.308 23.4481 29.2291 23.8951 29.2291C24.7893 29.2291 25.4994 29.4527 26.0254 29.8998C26.5514 30.3206 26.8144 30.9518 26.8144 31.7933C26.8144 33.0031 26.0517 34.0025 24.5263 34.7915C23.001 35.5804 20.7787 35.9749 17.8594 35.9749Z" fill="black"/>
<path d="M33.8132 37.3951C33.0505 37.3951 32.4588 37.1058 32.038 36.5272C31.6172 35.9486 31.4068 34.8967 31.4068 33.3713C31.4068 32.2404 31.5383 30.978 31.8013 29.5842C32.0643 28.164 32.4456 26.6781 32.9453 25.1265C33.445 23.5485 34.0499 21.9442 34.7599 20.3137C35.47 18.6568 36.2722 17.0263 37.1663 15.422C38.0868 13.7651 38.9415 12.4239 39.7305 11.3982C40.5195 10.3462 41.2953 9.58355 42.058 9.11016C42.847 8.61047 43.6623 8.36063 44.5039 8.36063C45.7662 8.36063 46.9102 8.91292 47.9359 10.0175C48.9879 11.0958 49.9215 12.8315 50.7368 15.2248C51.3417 16.9079 51.8545 18.6831 52.2753 20.5504C52.7224 22.3913 53.0643 24.2717 53.301 26.1916C53.5377 28.1114 53.656 30.0313 53.656 31.9511C53.656 33.5554 53.3799 34.7389 52.8276 35.5015C52.3016 36.2379 51.5652 36.6061 50.6184 36.6061C49.698 36.6061 48.9879 36.1985 48.4882 35.3832C47.9885 34.5679 47.6335 33.2135 47.4231 31.3199C47.3442 30.4784 47.2916 29.6105 47.2653 28.7163C47.2653 27.7958 47.2916 26.928 47.3442 26.1127L48.0937 29.1502C47.1732 29.4658 46.0161 29.6762 44.6222 29.7814C43.2546 29.8603 41.8213 29.834 40.3223 29.7025C38.8495 29.5447 37.4688 29.2686 36.1801 28.8741L38.2709 26.1916C38.2183 27.2435 38.1131 28.2692 37.9553 29.2686C37.8238 30.2417 37.6792 31.149 37.5214 31.9906C37.311 33.1477 37.0611 34.134 36.7718 34.9492C36.4826 35.7645 36.1012 36.3694 35.6278 36.7639C35.1807 37.1847 34.5759 37.3951 33.8132 37.3951ZM42.6892 25.1265C44.425 25.1265 45.6479 24.8109 46.358 24.1797C47.0943 23.5222 47.4625 22.3256 47.4625 20.5898C47.4625 19.6956 47.3705 18.8015 47.1864 17.9073C47.0023 17.0131 46.7524 16.1978 46.4369 15.4614C46.1213 14.6988 45.7399 14.0939 45.2928 13.6468C44.872 13.1997 44.425 12.9762 43.9516 12.9762C43.2678 12.9762 42.6234 13.3049 42.0186 13.9624C41.4137 14.5936 40.8745 15.3957 40.4012 16.3688C39.9278 17.3418 39.5464 18.3281 39.2571 19.3274C38.9941 20.3268 38.8626 21.1816 38.8626 21.8916C38.8626 22.9436 39.1782 23.7457 39.8094 24.298C40.4406 24.8503 41.4005 25.1265 42.6892 25.1265Z" fill="black"/>
<path d="M67.502 4.96802C68.4225 4.96802 69.435 5.02062 70.5396 5.12581C71.6441 5.20471 72.6961 5.38881 73.6955 5.6781C74.6949 5.96739 75.5101 6.38818 76.1413 6.94047C76.7988 7.46645 77.1275 8.18968 77.1275 9.11016C77.1275 10.0832 76.6673 10.767 75.7468 11.1615C74.8527 11.556 73.4851 11.7532 71.6441 11.7532C71.0392 11.7532 70.3818 11.7269 69.6717 11.6743C68.9879 11.6217 68.291 11.5428 67.5809 11.4377L68.4882 10.2936C68.7249 11.6349 68.9353 13.1208 69.1194 14.7514C69.3035 16.3556 69.4613 17.9862 69.5928 19.643C69.7506 21.2999 69.8558 22.8647 69.9084 24.3375C69.9873 25.8102 70.0267 27.0595 70.0267 28.0851C70.0267 30.3995 69.7769 32.1352 69.2772 33.2924C68.8038 34.4496 67.9885 35.0281 66.8314 35.0281C65.6216 35.0281 64.7537 34.4364 64.2277 33.2529C63.7017 32.0695 63.4387 30.2417 63.4387 27.7695C63.4387 26.5861 63.4913 25.2316 63.5965 23.7063C63.728 22.1546 63.899 20.5767 64.1094 18.9724C64.3198 17.3681 64.5433 15.8165 64.78 14.3174C65.043 12.8184 65.306 11.5165 65.569 10.412L66.6736 11.4377C66.0687 11.5428 65.2928 11.648 64.3461 11.7532C63.3993 11.8584 62.5314 11.911 61.7424 11.911C59.7437 11.911 58.2972 11.7664 57.403 11.4771C56.5352 11.1878 56.1012 10.5961 56.1012 9.7019C56.1012 8.75512 56.4563 7.97929 57.1664 7.37441C57.9027 6.76952 58.8364 6.29613 59.9672 5.95424C61.1244 5.58605 62.3605 5.33621 63.6754 5.20471C65.0167 5.04692 66.2922 4.96802 67.502 4.96802Z" fill="black"/>
<path d="M91.8463 35.8566C88.9271 35.8566 86.5996 35.4226 84.8639 34.5548C83.1281 33.6869 81.8789 32.4377 81.1162 30.8071C80.3535 29.1765 79.9722 27.2304 79.9722 24.9687C79.9722 22.102 80.4982 19.6693 81.5501 17.6706C82.6284 15.6455 84.1012 14.0939 85.9684 13.0156C87.862 11.9373 90.0054 11.3982 92.3986 11.3982C95.2126 11.3982 97.2771 12.0557 98.5921 13.3707C99.9071 14.6593 100.565 16.3556 100.565 18.4596C100.565 20.1427 100.117 21.6023 99.2233 22.8384C98.3554 24.0482 97.1456 24.9818 95.594 25.6393C94.0423 26.2968 92.254 26.6255 90.2289 26.6255C89.098 26.6255 88.0066 26.4809 86.9547 26.1916C85.9027 25.9023 84.9559 25.5078 84.1143 25.0081L85.0611 23.2723C84.9822 23.9035 84.9428 24.5347 84.9428 25.1659C84.9428 27.0069 85.5213 28.335 86.6785 29.1502C87.8357 29.9392 89.4794 30.3337 91.6096 30.3337C93.2665 30.3337 94.5946 30.1891 95.594 29.8998C96.5934 29.6105 97.4349 29.3343 98.1187 29.0713C98.8025 28.7821 99.4731 28.6374 100.131 28.6374C100.499 28.6374 100.828 28.7426 101.117 28.953C101.432 29.1371 101.682 29.4132 101.866 29.7814C102.077 30.1496 102.182 30.5967 102.182 31.1227C102.182 31.9117 101.787 32.6744 100.998 33.4107C100.21 34.1208 99.0392 34.7126 97.4875 35.1859C95.9622 35.633 94.0818 35.8566 91.8463 35.8566ZM89.5583 22.9568C91.4255 22.9568 92.9246 22.5623 94.0555 21.7733C95.1863 20.9843 95.7518 20.0112 95.7518 18.8541C95.7518 17.9336 95.4362 17.1841 94.805 16.6055C94.2001 16.0006 93.2402 15.6981 91.9252 15.6981C90.6892 15.6981 89.5714 15.9348 88.5721 16.4082C87.599 16.8553 86.8363 17.447 86.284 18.1834C85.7317 18.9198 85.4556 19.7219 85.4556 20.5898C85.4556 21.3525 85.8106 21.9442 86.5207 22.365C87.2571 22.7595 88.2696 22.9568 89.5583 22.9568Z" fill="black"/>
<path d="M19.0144 62.9273C18.2254 63.0325 17.4891 63.0983 16.8053 63.1246C16.1478 63.1509 15.5166 63.164 14.9117 63.164C13.1497 63.164 11.9662 63.0325 11.3613 62.7695C10.7564 62.4803 10.454 61.9937 10.454 61.3099C10.454 60.8628 10.5986 60.4552 10.8879 60.087C11.2035 59.7188 11.6506 59.4032 12.2292 59.1402C12.913 58.851 13.9123 58.588 15.2273 58.3513C16.5686 58.0883 17.9493 57.9568 19.3695 57.9568C21.2104 57.9568 22.6306 58.1146 23.6299 58.4302C24.6556 58.7195 25.1685 59.2849 25.1685 60.1265C25.1685 60.784 24.9055 61.3494 24.3795 61.8228C23.8535 62.2699 22.9856 62.5592 21.7758 62.6907L19.0144 62.9273ZM21.9336 62.1384C22.6174 63.0062 23.104 63.8873 23.3933 64.7814C23.6825 65.6756 23.8272 66.4778 23.8272 67.1878C23.8272 68.3713 23.4721 69.5153 22.7621 70.6199C22.0783 71.6982 21 72.5923 19.5272 73.3024C18.0545 73.9862 16.1215 74.3281 13.7282 74.3281C10.6512 74.3281 8.08704 73.7627 6.0357 72.6318C4.01065 71.4746 2.49844 69.8572 1.49906 67.7796C0.499687 65.6756 0 63.2298 0 60.4421C0 57.4439 0.631184 54.7877 1.89355 52.4734C3.15592 50.159 4.94427 48.3575 7.25861 47.0689C9.57295 45.7539 12.2818 45.0964 15.3851 45.0964C17.9624 45.0964 19.9349 45.5566 21.3025 46.4771C22.6963 47.3713 23.3933 48.4233 23.3933 49.633C23.3933 50.3694 23.1434 50.948 22.6437 51.3688C22.1703 51.7633 21.4734 51.9605 20.5529 51.9605C20.0006 51.9605 19.4221 51.8685 18.8172 51.6844C18.2386 51.5003 17.5811 51.3293 16.8447 51.1715C16.1346 50.9875 15.3194 50.8954 14.3989 50.8954C12.7157 50.8954 11.1641 51.211 9.7439 51.8422C8.32374 52.4471 7.17972 53.4596 6.31184 54.8798C5.47026 56.2736 5.04947 58.154 5.04947 60.521C5.04947 62.546 5.43081 64.2029 6.19349 65.4915C6.98247 66.7539 8.07389 67.6875 9.46776 68.2924C10.8616 68.871 12.4527 69.1603 14.2411 69.1603C15.4509 69.1603 16.3976 69.0288 17.0814 68.7658C17.7915 68.5028 18.2912 68.1083 18.5805 67.5823C18.8961 67.0563 19.0539 66.3857 19.0539 65.5704C19.0539 65.1233 18.9881 64.5711 18.8566 63.9136C18.7514 63.2561 18.5805 62.5986 18.3438 61.9411L21.9336 62.1384Z" fill="black"/>
<path d="M39.808 74.0125C37.7041 74.0125 35.8631 73.5523 34.2852 72.6318C32.7335 71.685 31.5237 70.3438 30.6559 68.608C29.8143 66.8722 29.3935 64.8077 29.3935 62.4145C29.3935 59.9161 29.8274 57.7332 30.6953 55.866C31.5632 53.9987 32.7861 52.5391 34.3641 51.4871C35.9683 50.4352 37.8224 49.9092 39.9264 49.9092C42.1881 49.9092 44.1474 50.422 45.8043 51.4477C47.4611 52.4471 48.7498 53.8541 49.6703 55.6687C50.5908 57.4834 51.051 59.6005 51.051 62.02C51.051 64.4922 50.5908 66.6224 49.6703 68.4108C48.7498 70.1991 47.448 71.5798 45.7648 72.5529C44.0817 73.526 42.0961 74.0125 39.808 74.0125ZM40.3603 68.6869C41.9909 68.6869 43.2795 68.0426 44.2263 66.7539C45.1994 65.4389 45.6859 63.7032 45.6859 61.5466C45.6859 59.3638 45.1994 57.628 44.2263 56.3394C43.2795 55.0507 41.9909 54.4064 40.3603 54.4064C38.6772 54.4064 37.349 55.0507 36.376 56.3394C35.4029 57.628 34.9164 59.3638 34.9164 61.5466C34.9164 63.7032 35.4029 65.4389 36.376 66.7539C37.349 68.0426 38.6772 68.6869 40.3603 68.6869Z" fill="black"/>
<path d="M60.5151 74.1703C59.6472 74.1703 58.9765 73.9073 58.5032 73.3813C58.0298 72.829 57.6879 71.948 57.4775 70.7382C57.2934 69.5022 57.2013 67.8585 57.2013 65.8071C57.2013 61.8359 57.4249 58.4302 57.872 55.5898C58.3191 52.7232 59.0817 50.5009 60.16 48.923C61.212 47.3976 62.5401 46.3193 64.1444 45.6881C65.7749 45.057 67.537 44.7414 69.4305 44.7414C72.639 44.7414 75.006 45.4909 76.5313 46.99C78.0567 48.489 78.8194 50.4483 78.8194 52.8679C78.8194 55.0244 78.2539 56.7865 77.1231 58.154C75.9922 59.5216 74.4668 60.4815 72.547 61.0338C70.6534 61.5598 68.5363 61.6913 66.1957 61.4283V61.5861C70.614 63.4796 73.7831 65.268 75.7029 66.9511C77.6491 68.608 78.6221 70.0413 78.6221 71.2511C78.6221 71.9875 78.3723 72.5792 77.8726 73.0263C77.3992 73.4734 76.7286 73.6969 75.8607 73.6969C74.8087 73.6969 73.6253 73.3419 72.3103 72.6318C70.9953 71.9217 69.5357 70.7382 67.9315 69.0814C66.3535 67.4245 64.6046 65.1891 62.6847 62.3751H62.5269C62.6584 62.9536 62.7636 63.6769 62.8425 64.5448C62.9477 65.3863 63.0266 66.2542 63.0792 67.1484C63.1581 68.0426 63.1976 68.8841 63.1976 69.6731C63.1976 71.1196 62.9872 72.2373 62.5664 73.0263C62.1719 73.789 61.4881 74.1703 60.5151 74.1703ZM67.3792 57.8384C68.51 57.8384 69.5357 57.6543 70.4562 57.2861C71.3767 56.8916 72.1131 56.3525 72.6653 55.6687C73.2176 54.9587 73.4938 54.1302 73.4938 53.1834C73.4938 51.9474 73.073 50.9612 72.2314 50.2248C71.3898 49.4884 70.1275 49.1202 68.4443 49.1202C67.3134 49.1202 66.3535 49.37 65.5645 49.8697C64.7755 50.3431 64.1707 50.9743 63.7499 51.7633C63.3554 52.5523 63.1581 53.407 63.1581 54.3275C63.1581 55.3531 63.5 56.1947 64.1838 56.8522C64.8676 57.5097 65.9327 57.8384 67.3792 57.8384Z" fill="black"/>
<path d="M93.8584 74.2492C92.9116 74.2492 92.1358 73.9336 91.5309 73.3024C90.9523 72.6449 90.663 71.4878 90.663 69.8309C90.663 68.6737 90.8077 67.4903 91.097 66.2805C91.3862 65.0444 91.7676 63.8873 92.241 62.809C92.7144 61.7044 93.2272 60.7708 93.7795 60.0081L93.6217 61.1127C90.9392 59.3243 88.8484 57.7332 87.3493 56.3394C85.8765 54.9455 84.8377 53.7226 84.2328 52.6706C83.6542 51.5923 83.365 50.6587 83.365 49.8697C83.365 49.2122 83.4833 48.66 83.72 48.2129C83.9567 47.7658 84.2723 47.4239 84.6668 47.1872C85.0613 46.9242 85.4952 46.7927 85.9686 46.7927C86.8891 46.7927 87.8227 47.2266 88.7695 48.0945C89.7162 48.9361 90.6762 50.2116 91.6492 51.9211C92.6486 53.6042 93.6611 55.7082 94.6868 58.2329H94.8446C95.9755 55.4189 97.1195 53.0125 98.2767 51.0138C99.4601 49.015 100.591 47.4765 101.669 46.3982C102.774 45.3199 103.734 44.7808 104.549 44.7808C104.917 44.7808 105.285 44.9123 105.654 45.1753C106.022 45.4383 106.324 45.8328 106.561 46.3588C106.824 46.8585 106.955 47.5159 106.955 48.3312C106.955 49.4095 106.522 50.6982 105.654 52.1972C104.812 53.67 103.589 55.1953 101.985 56.7733C100.407 58.3513 98.5002 59.8109 96.2648 61.1521L96.2253 60.4026C96.4883 61.2968 96.725 62.2699 96.9354 63.3218C97.1458 64.3475 97.3167 65.36 97.4482 66.3594C97.5797 67.3588 97.6455 68.2661 97.6455 69.0814C97.6455 70.7645 97.2904 72.0532 96.5804 72.9474C95.8966 73.8153 94.9893 74.2492 93.8584 74.2492Z" fill="black"/>
<path d="M123.665 44.1435C124.964 44.1435 126.003 44.5139 126.782 45.2548C127.594 45.9693 128 47.0277 128 48.4301C128 49.7266 127.61 50.8247 126.831 51.7244C126.084 52.6241 124.867 53.0739 123.178 53.0739C121.815 53.0739 120.808 52.7034 120.159 51.9625C119.542 51.2217 119.233 50.1765 119.233 48.827C119.233 48.0332 119.363 47.2791 119.623 46.5646C119.883 45.8502 120.337 45.2681 120.987 44.8182C121.636 44.3684 122.529 44.1435 123.665 44.1435ZM123.665 27.8704C124.964 27.8704 126.003 28.2408 126.782 28.9817C127.594 29.6961 128 30.7545 128 32.1569C128 33.4535 127.61 34.5516 126.831 35.4513C126.084 36.3509 124.867 36.8007 123.178 36.8007C121.815 36.8007 120.808 36.4303 120.159 35.6894C119.542 34.9485 119.233 33.9033 119.233 32.5538C119.233 31.76 119.363 31.0059 119.623 30.2915C119.883 29.5771 120.337 28.9949 120.987 28.5451C121.636 28.0953 122.529 27.8704 123.665 27.8704Z" fill="black"/>
</svg>
