<svg width="108" height="80" viewBox="0 0 108 80" fill="none" xmlns="http://www.w3.org/2000/svg">
<g clip-path="url(#clip0_2017_24)">
<path d="M10.9274 6.8291C14.057 6.8291 16.3582 7.63123 17.8309 9.23549C19.33 10.8397 20.0795 12.9437 20.0795 15.5473C20.0795 17.3357 19.6587 18.8873 18.8172 20.2023C18.0019 21.5173 16.8842 22.5429 15.464 23.2793C14.0438 23.9894 12.4396 24.3445 10.6512 24.3445C9.80965 24.3445 8.91547 24.2524 7.9687 24.0683C7.04822 23.8842 6.08829 23.5292 5.08892 23.0032L5.28616 22.4903C5.49656 23.1478 5.6675 23.9631 5.799 24.9362C5.9568 25.883 6.07514 26.8692 6.15404 27.8949C6.25924 28.8942 6.31184 29.8147 6.31184 30.6563C6.31184 32.2079 6.04884 33.4046 5.52286 34.2461C5.02317 35.0614 4.27364 35.4691 3.27427 35.4691C2.43269 35.4691 1.76205 35.2061 1.26237 34.6801C0.78898 34.1541 0.460238 33.2862 0.276143 32.0765C0.0920477 30.8667 0 29.2493 0 27.2242C0 23.3319 0.170946 20.0182 0.512837 17.2831C0.881027 14.5217 1.49906 12.352 2.36694 10.774C3.05072 9.56423 4.10269 8.6043 5.52286 7.89422C6.96932 7.18414 8.77083 6.8291 10.9274 6.8291ZM10.1778 19.6895C11.7558 19.6895 13.0313 19.2687 14.0044 18.4271C15.0038 17.5855 15.5035 16.3626 15.5035 14.7583C15.5035 13.7064 15.1484 12.8385 14.4383 12.1547C13.7545 11.4446 12.6763 11.0896 11.2035 11.0896C10.1252 11.0896 9.19161 11.3394 8.40263 11.8391C7.61366 12.3125 7.00877 12.9831 6.58798 13.851C6.19349 14.6926 5.99625 15.6657 5.99625 16.7702C5.99625 17.7959 6.32499 18.5454 6.98247 19.0188C7.66625 19.4659 8.73138 19.6895 10.1778 19.6895Z" fill="black"/>
<path d="M29.1513 36.258C28.1782 36.258 27.4155 35.8899 26.8632 35.1535C26.3372 34.4171 25.969 33.2073 25.7586 31.5242C25.5483 29.8147 25.4431 27.553 25.4431 24.7389C25.4431 21.4252 25.6929 18.598 26.1926 16.2574C26.6923 13.8905 27.4287 12.0101 28.4017 10.6162C29.4537 9.09084 30.7818 8.01257 32.3861 7.38138C34.0166 6.7502 35.7787 6.43461 37.6722 6.43461C40.7493 6.43461 43.011 7.11839 44.4575 8.48595C45.9302 9.82722 46.6666 11.5893 46.6666 13.7721C46.6666 15.8235 46.1143 17.5066 45.0098 18.8216C43.9315 20.1103 42.4587 21.0176 40.5915 21.5436C38.7505 22.0696 36.6992 22.2011 34.4374 21.9381V22.0959C38.8557 23.9894 42.0248 25.7778 43.9446 27.4609C45.8908 29.1178 46.8639 30.5511 46.8639 31.7609C46.8639 32.392 46.6798 32.8917 46.3116 33.2599C45.9697 33.6281 45.4963 33.8122 44.8914 33.8122C43.7868 33.8122 42.5376 33.4703 41.1438 32.7865C39.7499 32.1028 38.1982 30.9587 36.4888 29.3545C34.8056 27.7502 32.9515 25.5937 30.9265 22.8848H30.7687C30.9528 23.5423 31.1237 24.3445 31.2815 25.2912C31.4393 26.2117 31.5708 27.1716 31.676 28.171C31.7812 29.1704 31.8338 30.104 31.8338 30.9719C31.8338 32.6813 31.6234 33.9963 31.2026 34.9168C30.8081 35.811 30.1243 36.258 29.1513 36.258ZM36.0154 18.7427C37.1989 18.7427 38.264 18.5586 39.2108 18.1904C40.1575 17.7959 40.9071 17.2568 41.4593 16.573C42.0379 15.8629 42.3272 15.0345 42.3272 14.0877C42.3272 12.8516 41.9064 11.8654 41.0649 11.129C40.2233 10.3927 38.9609 10.0245 37.2777 10.0245C36.0154 10.0245 34.9503 10.2743 34.0824 10.774C33.2145 11.2474 32.5439 11.8786 32.0705 12.6675C31.6234 13.4565 31.3999 14.3113 31.3999 15.2317C31.3999 16.2574 31.768 17.099 32.5044 17.7565C33.2671 18.414 34.4374 18.7427 36.0154 18.7427Z" fill="black"/>
<path d="M56.3948 4.93555C57.4468 4.93555 58.1963 5.22484 58.6434 5.80342C59.1168 6.38201 59.3535 7.05264 59.3535 7.81532C59.3535 8.7621 59.0642 9.49848 58.4856 10.0245C57.9333 10.5242 57.1443 10.774 56.1186 10.774C55.1193 10.774 54.3697 10.4979 53.8701 9.94557C53.3704 9.36698 53.1205 8.69635 53.1205 7.93367C53.1205 6.9343 53.423 6.18476 54.0279 5.68508C54.6327 5.18539 55.4217 4.93555 56.3948 4.93555ZM56.6315 13.7327C57.4731 13.7327 58.1305 14.5217 58.6039 16.0996C59.1036 17.6776 59.3535 20.1892 59.3535 23.6344C59.3535 27.8686 59.051 30.9193 58.4461 32.7865C57.8413 34.6538 56.9208 35.5874 55.6847 35.5874C54.7379 35.5874 54.041 34.9036 53.5939 33.5361C53.1468 32.1422 52.9233 29.7227 52.9233 26.2775C52.9233 22.0433 53.2652 18.9005 53.949 16.8491C54.659 14.7715 55.5532 13.7327 56.6315 13.7327Z" fill="black"/>
<path d="M76.1254 35.3113C74.0215 35.3113 72.1806 34.851 70.6026 33.9306C69.0509 32.9838 67.8412 31.6425 66.9733 29.9068C66.1317 28.171 65.7109 26.1065 65.7109 23.7133C65.7109 21.2148 66.1449 19.032 67.0127 17.1647C67.8806 15.2975 69.1035 13.8379 70.6815 12.7859C72.2857 11.7339 74.1398 11.2079 76.2438 11.2079C78.5055 11.2079 80.4648 11.7208 82.1217 12.7464C83.7786 13.7458 85.0672 15.1528 85.9877 16.9675C86.9082 18.7821 87.3684 20.8992 87.3684 23.3188C87.3684 25.7909 86.9082 27.9212 85.9877 29.7095C85.0672 31.4979 83.7654 32.8786 82.0822 33.8517C80.3991 34.8247 78.4135 35.3113 76.1254 35.3113ZM76.6777 29.9857C78.3083 29.9857 79.597 29.3413 80.5437 28.0527C81.5168 26.7377 82.0033 25.0019 82.0033 22.8454C82.0033 20.6625 81.5168 18.9268 80.5437 17.6381C79.597 16.3495 78.3083 15.7051 76.6777 15.7051C74.9946 15.7051 73.6665 16.3495 72.6934 17.6381C71.7203 18.9268 71.2338 20.6625 71.2338 22.8454C71.2338 25.0019 71.7203 26.7377 72.6934 28.0527C73.6665 29.3413 74.9946 29.9857 76.6777 29.9857Z" fill="black"/>
<path d="M4.04568 74.9181C3.1778 74.9181 2.50717 74.6551 2.03378 74.1291C1.56039 73.5768 1.2185 72.6958 1.00811 71.486C0.824011 70.2499 0.731964 68.6062 0.731964 66.5549C0.731964 62.5837 0.955508 59.1779 1.4026 56.3376C1.84969 53.471 2.61237 51.2487 3.69064 49.6707C4.74261 48.1453 6.07073 47.0671 7.67499 46.4359C9.30554 45.8047 11.0676 45.4891 12.9612 45.4891C16.1697 45.4891 18.5366 46.2386 20.062 47.7377C21.5873 49.2368 22.35 51.1961 22.35 53.6156C22.35 55.7721 21.7846 57.5342 20.6537 58.9018C19.5228 60.2693 17.9975 61.2293 16.0776 61.7815C14.1841 62.3075 12.067 62.439 9.72633 62.176V62.3338C14.1446 64.2274 17.3137 66.0157 19.2335 67.6989C21.1797 69.3557 22.1528 70.7891 22.1528 71.9988C22.1528 72.7352 21.9029 73.3269 21.4032 73.774C20.9298 74.2211 20.2592 74.4447 19.3913 74.4447C18.3394 74.4447 17.1559 74.0896 15.8409 73.3795C14.526 72.6695 13.0663 71.486 11.4621 69.8291C9.88413 68.1723 8.13522 65.9368 6.21537 63.1228H6.05758C6.18907 63.7014 6.29427 64.4246 6.37317 65.2925C6.47837 66.1341 6.55726 67.002 6.60986 67.8961C6.68876 68.7903 6.72821 69.6319 6.72821 70.4209C6.72821 71.8673 6.51782 72.9851 6.09703 73.774C5.70254 74.5367 5.01875 74.9181 4.04568 74.9181ZM10.9098 58.5862C12.0407 58.5862 13.0663 58.4021 13.9868 58.0339C14.9073 57.6394 15.6437 57.1003 16.196 56.4165C16.7483 55.7064 17.0244 54.878 17.0244 53.9312C17.0244 52.6951 16.6036 51.7089 15.762 50.9725C14.9204 50.2361 13.6581 49.8679 11.9749 49.8679C10.8441 49.8679 9.88413 50.1178 9.09515 50.6175C8.30617 51.0909 7.70128 51.7221 7.2805 52.511C6.88601 53.3 6.68876 54.1547 6.68876 55.0752C6.68876 56.1009 7.03065 56.9425 7.71443 57.6C8.39822 58.2574 9.46334 58.5862 10.9098 58.5862Z" fill="black"/>
<path d="M31.9148 44.3845C32.9668 44.3845 33.7164 44.6738 34.1634 45.2524C34.6368 45.831 34.8735 46.5016 34.8735 47.2643C34.8735 48.2111 34.5842 48.9475 34.0056 49.4735C33.4534 49.9731 32.6644 50.223 31.6387 50.223C30.6393 50.223 29.8898 49.9468 29.3901 49.3946C28.8904 48.816 28.6406 48.1453 28.6406 47.3827C28.6406 46.3833 28.943 45.6338 29.5479 45.1341C30.1528 44.6344 30.9418 44.3845 31.9148 44.3845ZM32.1515 53.1817C32.9931 53.1817 33.6506 53.9706 34.124 55.5486C34.6237 57.1266 34.8735 59.6381 34.8735 63.0834C34.8735 67.3175 34.5711 70.3683 33.9662 72.2355C33.3613 74.1028 32.4408 75.0364 31.2048 75.0364C30.258 75.0364 29.5611 74.3526 29.114 72.9851C28.6669 71.5912 28.4433 69.1717 28.4433 65.7264C28.4433 61.4923 28.7852 58.3495 29.469 56.2981C30.1791 54.2205 31.0733 53.1817 32.1515 53.1817Z" fill="black"/>
<path d="M48.7263 50.8936H47.9373C47.8584 49.7364 47.8847 48.645 48.0162 47.6194C48.1477 46.5674 48.4238 45.7258 48.8446 45.0946C49.2917 44.4371 49.9229 44.1084 50.7382 44.1084C51.4746 44.1084 52.0137 44.3451 52.3556 44.8185C52.6975 45.2919 52.8684 45.9493 52.8684 46.7909C52.8684 48.4478 52.5528 49.8679 51.9216 51.0514L51.2116 50.9725C52.6317 50.4728 54.236 50.223 56.0243 50.223C57.1552 50.223 58.0494 50.4465 58.7069 50.8936C59.3907 51.3144 59.7325 52.0376 59.7325 53.0633C59.7325 54.0364 59.3381 54.7728 58.5491 55.2725C57.7601 55.7721 56.7739 56.022 55.5904 56.022C54.8803 56.022 54.1176 55.9957 53.3024 55.9431C52.5134 55.8642 51.7376 55.7458 50.9749 55.588L51.6455 54.7596C51.8822 55.759 52.1057 56.903 52.3161 58.1917C52.5528 59.4541 52.7632 60.769 52.9473 62.1366C53.1314 63.5041 53.2761 64.8323 53.3813 66.1209C53.4865 67.4096 53.5391 68.5668 53.5391 69.5924C53.5391 71.2756 53.2761 72.6037 52.7501 73.5768C52.2241 74.5499 51.4483 75.0364 50.4226 75.0364C49.6073 75.0364 48.963 74.7866 48.4896 74.2869C48.0425 73.7872 47.7138 73.156 47.5034 72.3933C47.3193 71.6043 47.2009 70.7891 47.1483 69.9475C47.122 69.1059 47.1089 68.3432 47.1089 67.6594C47.1089 66.5023 47.1615 65.2005 47.2667 63.754C47.3719 62.2812 47.5165 60.769 47.7006 59.2174C47.911 57.6657 48.1477 56.1666 48.4107 54.7202L49.1997 55.3908C47.8584 56.0746 46.2015 56.4165 44.2291 56.4165C43.0193 56.4165 42.0857 56.1929 41.4282 55.7458C40.7707 55.2988 40.442 54.6018 40.442 53.655C40.442 52.6294 40.8102 51.8404 41.5466 51.2881C42.2829 50.7095 43.2692 50.4202 44.5052 50.4202C45.3205 50.4202 46.0832 50.4728 46.7933 50.578C47.5297 50.6569 48.174 50.7621 48.7263 50.8936Z" fill="black"/>
<path d="M74.2615 74.997C73.3147 74.997 72.5389 74.6551 71.934 73.9713C71.3554 73.2612 71.0661 71.9988 71.0661 70.1842C71.0661 68.8955 71.1582 67.5674 71.3423 66.1998C71.5264 64.8323 71.763 63.5304 72.0523 62.2944C72.3416 61.0583 72.6572 60.0195 72.9991 59.1779L73.2358 60.2825C70.7637 58.4941 68.8438 56.903 67.4763 55.5092C66.1087 54.1153 65.1488 52.8924 64.5965 51.8404C64.0442 50.7621 63.7681 49.8285 63.7681 49.0395C63.7681 48.382 63.8996 47.8297 64.1625 47.3827C64.4518 46.9356 64.82 46.5937 65.2671 46.357C65.7142 46.094 66.2139 45.9625 66.7662 45.9625C68.0285 45.9625 69.3041 46.9224 70.5927 48.8423C71.9077 50.7621 73.2753 53.6156 74.6954 57.4027H74.8532C76.0367 54.6939 77.2333 52.4716 78.4431 50.7358C79.6791 48.9738 80.8626 47.672 81.9935 46.8304C83.1244 45.9625 84.1106 45.5286 84.9522 45.5286C85.7148 45.5286 86.3066 45.7916 86.7274 46.3175C87.1482 46.8172 87.3585 47.4747 87.3585 48.29C87.3585 49.4735 86.8983 50.7753 85.9778 52.1954C85.0574 53.5893 83.7424 54.9963 82.0329 56.4165C80.3235 57.8366 78.2721 59.1385 75.8789 60.3219L76.2339 59.5724C76.5758 60.6244 76.8783 61.7684 77.1413 63.0045C77.4305 64.2142 77.6541 65.424 77.8119 66.6338C77.9697 67.8172 78.0486 68.8824 78.0486 69.8291C78.0486 71.5123 77.6935 72.801 76.9835 73.6951C76.2997 74.563 75.3924 74.997 74.2615 74.997Z" fill="black"/>
<path d="M103.854 43.7955C105.153 43.7955 106.192 44.1659 106.971 44.9068C107.783 45.6212 108.189 46.6797 108.189 48.0821C108.189 49.3786 107.799 50.4767 107.02 51.3764C106.273 52.276 105.056 52.7259 103.367 52.7259C102.004 52.7259 100.997 52.3554 100.348 51.6145C99.7308 50.8736 99.4224 49.8284 99.4224 48.479C99.4224 47.6852 99.5522 46.931 99.812 46.2166C100.072 45.5022 100.526 44.92 101.176 44.4702C101.825 44.0204 102.718 43.7955 103.854 43.7955ZM103.854 27.5223C105.153 27.5223 106.192 27.8928 106.971 28.6337C107.783 29.3481 108.189 30.4065 108.189 31.8089C108.189 33.1055 107.799 34.2036 107.02 35.1032C106.273 36.0029 105.056 36.4527 103.367 36.4527C102.004 36.4527 100.997 36.0823 100.348 35.3414C99.7308 34.6005 99.4224 33.5553 99.4224 32.2058C99.4224 31.412 99.5522 30.6579 99.812 29.9435C100.072 29.229 100.526 28.6469 101.176 28.1971C101.825 27.7473 102.718 27.5223 103.854 27.5223Z" fill="black"/>
</g>
<defs>
<clipPath id="clip0_2017_24">
<rect width="108" height="80" fill="white"/>
</clipPath>
</defs>
</svg>
